<svg xmlns="http://www.w3.org/2000/svg" viewBox="0 0 512 512" width="512" height="512">
  <defs>
    <linearGradient id="bg" x1="0" y1="0" x2="1" y2="1">
      <stop offset="0%" stop-color="#1c1c1f"/>
      <stop offset="100%" stop-color="#111113"/>
    </linearGradient>
  </defs>

  <!-- Background -->
  <rect width="512" height="512" rx="96" fill="url(#bg)"/>

  <!-- MDI coffee icon (mdi:coffee) centered, Go-blue, ~340px -->
  <g transform="translate(86, 72) scale(14.17)" fill="#00ADD8">
    <path d="M2,21V19H20V21H2M20,8V5H18V8H20M20,3A2,2 0 0,1 22,5V8A2,2 0 0,1 20,10H18V13A4,4 0 0,1 14,17H8A4,4 0 0,1 4,13V3H20M16,5H6V13A2,2 0 0,0 8,15H14A2,2 0 0,0 16,13V5Z"/>
  </g>

  <!-- GO label at bottom, small GLP superscript-style pretext -->
  <text x="256" y="462"
        font-family="-apple-system, BlinkMacSystemFont, 'Segoe UI', system-ui, sans-serif"
        font-size="56" font-weight="800" fill="#00ADD8" text-anchor="middle" letter-spacing="2"
        opacity="0.95">GO</text>
</svg>
